<svg xmlns="http://www.w3.org/2000/svg" viewBox="0 0 64 64">
  <rect width="64" height="64" rx="14" fill="#0a0b13"/>
  <!-- horns -->
  <path d="M17 24 Q7 16 12 6 Q17 16 25 19 Z" fill="#f2ead8"/>
  <path d="M47 24 Q57 16 52 6 Q47 16 39 19 Z" fill="#f2ead8"/>
  <!-- head -->
  <path d="M19 19 Q32 13 45 19 Q50 33 43 46 Q32 54 21 46 Q14 33 19 19 Z" fill="#22d68e"/>
  <!-- brow -->
  <path d="M22 26 L29 30 M42 26 L35 30" stroke="#0a0b13" stroke-width="3.4" stroke-linecap="round" fill="none"/>
  <!-- eyes -->
  <circle cx="26" cy="33" r="2.6" fill="#0a0b13"/>
  <circle cx="38" cy="33" r="2.6" fill="#0a0b13"/>
  <!-- nostrils -->
  <ellipse cx="27" cy="44" rx="2.2" ry="3.2" transform="rotate(-18 27 44)" fill="#0a0b13"/>
  <ellipse cx="37" cy="44" rx="2.2" ry="3.2" transform="rotate(18 37 44)" fill="#0a0b13"/>
</svg>
