<svg xmlns="http://www.w3.org/2000/svg" viewBox="0 0 64 64">
  <rect width="64" height="64" rx="14" fill="#0a0b13"/>
  <!-- bull half (left, green): horn + half head -->
  <path d="M20 15 Q8 10 10 1.5 Q17 8 28 9.5 L28 15 Z" fill="#f2ead8"/>
  <path d="M32 11 L22 13 Q12 19 12 30 Q12 45 23 51 Q28 54 32 54 Z" fill="#22d68e"/>
  <!-- bear half (right, red): round ear + half head -->
  <circle cx="47" cy="11" r="7.5" fill="#ff5964"/>
  <circle cx="47" cy="11" r="3.2" fill="#0a0b13"/>
  <path d="M32 11 L42 13 Q52 19 52 30 Q52 45 41 51 Q36 54 32 54 Z" fill="#ff5964"/>
  <!-- seam -->
  <line x1="32" y1="10" x2="32" y2="55" stroke="#0a0b13" stroke-width="2.4"/>
  <!-- brows -->
  <path d="M16 24 L26 28.5" stroke="#0a0b13" stroke-width="3.4" stroke-linecap="round" fill="none"/>
  <path d="M48 24 L38 28.5" stroke="#0a0b13" stroke-width="3.4" stroke-linecap="round" fill="none"/>
  <!-- eyes -->
  <circle cx="22.5" cy="32" r="2.7" fill="#0a0b13"/>
  <circle cx="41.5" cy="32" r="2.7" fill="#0a0b13"/>
  <!-- nostrils -->
  <ellipse cx="25" cy="45" rx="2.1" ry="3" transform="rotate(-16 25 45)" fill="#0a0b13"/>
  <ellipse cx="39" cy="45" rx="2.1" ry="3" transform="rotate(16 39 45)" fill="#0a0b13"/>
</svg>
